<svg xmlns="http://www.w3.org/2000/svg" width="62" height="62" viewBox="0 0 62 62">
    <g fill="#4581F0" fill-rule="nonzero">
        <path d="M42 10c2.9 0 5.6.8 8 2.2V1c0-.6-.4-1-1-1H1C.4 0 0 .4 0 1v60c0 .6.4 1 1 1h48c.6 0 1-.4 1-1V39.8c-2.4 1.4-5.2 2.2-8 2.2-8.8 0-16-7.2-16-16s7.2-16 16-16zm-31 6h12c.6 0 1 .4 1 1s-.4 1-1 1H11c-.6 0-1-.4-1-1s.4-1 1-1zm0 14h11c.6 0 1 .4 1 1s-.4 1-1 1H11c-.6 0-1-.4-1-1s.4-1 1-1zm21 14c.6 0 1 .4 1 1s-.4 1-1 1H11c-.6 0-1-.4-1-1s.4-1 1-1h21z"/>
        <path d="M61.7 44.3l-9.1-9.1c2.1-2.5 3.4-5.7 3.4-9.2 0-7.7-6.3-14-14-14s-14 6.3-14 14 6.3 14 14 14c3.5 0 6.7-1.3 9.2-3.4l9.1 9.1c.2.2.5.3.7.3.2 0 .5-.1.7-.3.4-.4.4-1 0-1.4zM42 38c-6.3 0-11.4-4.9-11.9-11H43c.6 0 1-.4 1-1s-.4-1-1-1H30.1c.5-6.1 5.7-11 11.9-11 6.6 0 12 5.4 12 12s-5.4 12-12 12z"/>
    </g>
</svg>
