<?xml version="1.0" encoding="UTF-8"?>
<svg width="62px" height="62px" viewBox="0 0 62 62" version="1.1" xmlns="http://www.w3.org/2000/svg" xmlns:xlink="http://www.w3.org/1999/xlink">
    <!-- Generator: Sketch 49.1 (51147) - http://www.bohemiancoding.com/sketch -->
    <title>tech-64px-glyph_keyboard</title>
    <desc>Created with Sketch.</desc>
    <defs></defs>
    <g id="App" stroke="none" stroke-width="1" fill="none" fill-rule="evenodd">
        <g id="Reports-Company" transform="translate(-534.000000, -223.000000)" fill="#4581F0" fill-rule="nonzero">
            <g id="tech-64px-glyph_keyboard" transform="translate(534.000000, 223.000000)">
                <path d="M47,16 C46.448,16 46,15.553 46,15 L46,7 C46,6.447 46.448,6 47,6 C47.552,6 48,6.447 48,7 L48,15 C48,15.553 47.552,16 47,16 Z" id="Shape"></path>
                <path d="M29,16 C28.448,16 28,15.553 28,15 L28,10 C28,5.589 24.411,2 20,2 C15.589,2 12,5.589 12,10 L12,15 C12,15.553 11.552,16 11,16 C10.448,16 10,15.553 10,15 L10,10 C10,4.486 14.486,0 20,0 C25.514,0 30,4.486 30,10 L30,15 C30,15.553 29.552,16 29,16 Z" id="Shape"></path>
                <path d="M38,62 C32.486,62 28,57.514 28,52 L28,51 L30,51 L30,52 C30,56.411 33.589,60 38,60 C42.411,60 46,56.411 46,52 L46,51 L48,51 L48,52 C48,57.514 43.514,62 38,62 Z" id="Shape"></path>
                <path d="M61,14 L1,14 C0.448,14 0,14.447 0,15 L0,47 C0,47.553 0.448,48 1,48 L61,48 C61.552,48 62,47.553 62,47 L62,15 C62,14.447 61.552,14 61,14 Z M21,24 C21,23.448 21.448,23 22,23 L28,23 C28.552,23 29,23.448 29,24 L29,26 C29,26.552 28.552,27 28,27 L22,27 C21.448,27 21,26.552 21,26 L21,24 Z M17,38 C17,38.552 16.552,39 16,39 L10,39 C9.448,39 9,38.552 9,38 L9,36 C9,35.448 9.448,35 10,35 L16,35 C16.552,35 17,35.448 17,36 L17,38 Z M17,26 C17,26.552 16.552,27 16,27 L10,27 C9.448,27 9,26.552 9,26 L9,24 C9,23.448 9.448,23 10,23 L16,23 C16.552,23 17,23.448 17,24 L17,26 Z M41,38 C41,38.552 40.552,39 40,39 L22,39 C21.448,39 21,38.552 21,38 L21,36 C21,35.448 21.448,35 22,35 L40,35 C40.552,35 41,35.448 41,36 L41,38 Z M41,26 C41,26.552 40.552,27 40,27 L34,27 C33.448,27 33,26.552 33,26 L33,24 C33,23.448 33.448,23 34,23 L40,23 C40.552,23 41,23.448 41,24 L41,26 Z M53,38 C53,38.552 52.552,39 52,39 L46,39 C45.448,39 45,38.552 45,38 L45,36 C45,35.448 45.448,35 46,35 L52,35 C52.552,35 53,35.448 53,36 L53,38 Z M53,26 C53,26.552 52.552,27 52,27 L46,27 C45.448,27 45,26.552 45,26 L45,24 C45,23.448 45.448,23 46,23 L52,23 C52.552,23 53,23.448 53,24 L53,26 Z" id="Shape"></path>
            </g>
        </g>
    </g>
</svg>