<?xml version="1.0" encoding="UTF-8"?>
<svg width="58px" height="62px" viewBox="0 0 58 62" version="1.1" xmlns="http://www.w3.org/2000/svg" xmlns:xlink="http://www.w3.org/1999/xlink">
    <!-- Generator: Sketch 49.1 (51147) - http://www.bohemiancoding.com/sketch -->
    <title>users-64px-glyph_single-01</title>
    <desc>Created with Sketch.</desc>
    <defs></defs>
    <g id="App" stroke="none" stroke-width="1" fill="none" fill-rule="evenodd">
        <g id="Reports-Company" transform="translate(-127.000000, -220.000000)" fill="#4581F0" fill-rule="nonzero">
            <g id="users-64px-glyph_single-01" transform="translate(127.000000, 220.000000)">
                <path d="M52.082,43.713 C47.396,42.02 39.587,40 29,40 C18.413,40 10.604,42.02 5.918,43.713 C2.378,44.993 0,48.393 0,52.174 L0,61 C0,61.552 0.448,62 1,62 L57,62 C57.552,62 58,61.552 58,61 L58,52.174 C58,48.393 55.622,44.993 52.082,43.713 Z" id="Shape"></path>
                <path d="M29,34 C37.271,34 44,27.271 44,19 L44,15 C44,6.729 37.271,0 29,0 C20.729,0 14,6.729 14,15 L14,19 C14,27.271 20.729,34 29,34 Z" id="Shape"></path>
            </g>
        </g>
    </g>
</svg>